<svg xmlns="http://www.w3.org/2000/svg" viewBox="0 0 1023.84 1023.84"><defs><style>.cls-1{fill:#fff;}.cls-2{fill:#515a6a;}.cls-3{fill:#dadce0;}.cls-4{fill:#ddbcbc;}.cls-5,.cls-6{fill:#bbddde;}.cls-6{stroke:#fff;stroke-miterlimit:10;stroke-width:5px;}</style></defs><g id="BG"><rect class="cls-1" y="-45.94" width="1023.84" height="1023.84" transform="translate(977.9 -45.94) rotate(90)"/></g><g id="Design"><g id="circle"><path class="cls-2" d="M511.92,946.27c-4.94,0-9.95-.09-14.88-.26a3.66,3.66,0,0,1,.26-7.31c9.56.33,19.24.34,28.76,0a3.66,3.66,0,0,1,.24,7.31Q519.15,946.27,511.92,946.27Zm43.18-2.22a3.65,3.65,0,0,1-.37-7.29c9.51-1,19.09-2.31,28.48-4a3.66,3.66,0,1,1,1.25,7.21c-9.55,1.66-19.3,3-29,4A2.55,2.55,0,0,1,555.1,944.05Zm-86.85,0-.39,0c-9.66-1-19.41-2.37-29-4.05a3.66,3.66,0,1,1,1.27-7.2c9.39,1.65,19,3,28.46,4a3.65,3.65,0,0,1-.37,7.29Zm144-9.91a3.66,3.66,0,0,1-.88-7.21c9.27-2.29,18.57-5,27.64-7.89a3.66,3.66,0,0,1,2.26,7c-9.24,3-18.71,5.69-28.14,8A3.79,3.79,0,0,1,612.21,934.09Zm-201-.12a3.44,3.44,0,0,1-.89-.11c-9.43-2.35-18.89-5.06-28.12-8.06a3.66,3.66,0,0,1,2.26-7c9.07,2.95,18.37,5.62,27.63,7.93a3.65,3.65,0,0,1-.88,7.2ZM667.4,916.21a3.66,3.66,0,0,1-1.37-7.05c8.86-3.57,17.7-7.51,26.29-11.7a3.66,3.66,0,0,1,3.21,6.58c-8.75,4.26-17.75,8.27-26.76,11.91A3.7,3.7,0,0,1,667.4,916.21ZM356,916a3.66,3.66,0,0,1-1.37-.26c-9-3.64-18-7.65-26.69-11.92a3.65,3.65,0,1,1,3.21-6.56c8.56,4.18,17.39,8.12,26.22,11.7a3.65,3.65,0,0,1-1.37,7Zm363.52-25.27a3.65,3.65,0,0,1-1.83-6.82c8.27-4.78,16.47-9.91,24.39-15.25a3.66,3.66,0,1,1,4.09,6.06c-8.06,5.44-16.41,10.66-24.82,15.52A3.59,3.59,0,0,1,719.55,890.77ZM304,890.6a3.64,3.64,0,0,1-1.83-.49c-8.4-4.86-16.74-10.08-24.78-15.52a3.66,3.66,0,1,1,4.09-6.06c7.91,5.34,16.1,10.48,24.35,15.25A3.66,3.66,0,0,1,304,890.6Zm463.63-32.28a3.65,3.65,0,0,1-2.25-6.53c7.52-5.88,14.93-12.1,22-18.49a3.66,3.66,0,0,1,4.89,5.44c-7.22,6.5-14.77,12.83-22.42,18.81A3.65,3.65,0,0,1,767.63,858.32ZM256,858.15a3.6,3.6,0,0,1-2.25-.78c-7.65-6-15.18-12.31-22.4-18.81a3.66,3.66,0,1,1,4.9-5.44c7.09,6.39,14.49,12.61,22,18.5a3.65,3.65,0,0,1-2.26,6.53Zm554.74-38.61a3.62,3.62,0,0,1-2.54-1,3.66,3.66,0,0,1-.09-5.17c6.64-6.87,13.12-14.05,19.26-21.35a3.66,3.66,0,0,1,5.6,4.71c-6.25,7.43-12.84,14.74-19.6,21.72A3.66,3.66,0,0,1,810.73,819.54Zm-597.8-.19a3.66,3.66,0,0,1-2.63-1.12c-6.75-7-13.34-14.3-19.59-21.74a3.66,3.66,0,0,1,5.6-4.71c6.14,7.32,12.62,14.5,19.25,21.37a3.66,3.66,0,0,1-2.63,6.2ZM848,775.18a3.6,3.6,0,0,1-2.15-.71,3.64,3.64,0,0,1-.81-5.1c5.62-7.72,11-15.72,16.11-23.8a3.66,3.66,0,0,1,6.2,3.88c-5.16,8.23-10.68,16.37-16.4,24.22A3.65,3.65,0,0,1,848,775.18Zm-672.4-.24a3.63,3.63,0,0,1-3-1.51c-5.73-7.86-11.24-16-16.39-24.25a3.66,3.66,0,1,1,6.2-3.88c5.06,8.08,10.48,16.1,16.1,23.83a3.65,3.65,0,0,1-3,5.81Zm703.18-48.85a3.65,3.65,0,0,1-3.22-5.38c4.49-8.41,8.74-17.09,12.63-25.79a3.65,3.65,0,1,1,6.67,3c-4,8.86-8.28,17.69-12.85,26.26A3.67,3.67,0,0,1,878.82,726.09Zm-734-.32a3.66,3.66,0,0,1-3.24-1.94c-4.57-8.58-8.89-17.44-12.85-26.31a3.66,3.66,0,0,1,6.68-3c3.89,8.72,8.14,17.42,12.63,25.86a3.66,3.66,0,0,1-3.22,5.37Zm757.59-52.54a3.73,3.73,0,0,1-1.26-.23,3.66,3.66,0,0,1-2.18-4.69c3.28-9,6.28-18.16,8.91-27.33a3.66,3.66,0,0,1,7,2c-2.68,9.33-5.73,18.69-9.07,27.82A3.66,3.66,0,0,1,902.45,673.23Zm-781.22-.46a3.67,3.67,0,0,1-3.44-2.41c-3.32-9.13-6.36-18.49-9-27.83a3.66,3.66,0,1,1,7-2c2.63,9.17,5.61,18.37,8.87,27.34a3.65,3.65,0,0,1-2.18,4.68A3.72,3.72,0,0,1,121.23,672.77Zm797.23-55.26a3.27,3.27,0,0,1-.76-.08,3.66,3.66,0,0,1-2.82-4.34c2-9.32,3.66-18.84,5-28.3a3.66,3.66,0,1,1,7.24,1c-1.35,9.64-3.06,19.33-5.08,28.82A3.65,3.65,0,0,1,918.46,617.51ZM105.28,617a3.65,3.65,0,0,1-3.57-2.9c-2-9.49-3.71-19.19-5-28.82a3.66,3.66,0,0,1,7.25-1c1.31,9.47,3,19,5,28.32A3.65,3.65,0,0,1,106,617,3.27,3.27,0,0,1,105.28,617Zm821.25-56.92h-.26a3.66,3.66,0,0,1-3.4-3.9c.67-9.5,1-19.16,1-28.74a3.67,3.67,0,0,1,3.66-3.65h0a3.65,3.65,0,0,1,3.65,3.66c0,9.74-.36,19.58-1,29.24A3.65,3.65,0,0,1,926.53,560.11Zm-829.25-.49a3.65,3.65,0,0,1-3.64-3.4c-.67-9.66-1-19.5-1-29.24v-1a3.66,3.66,0,1,1,7.31,0v1c0,9.57.33,19.24,1,28.73a3.67,3.67,0,0,1-3.4,3.9Zm829.31-57.48a3.66,3.66,0,0,1-3.65-3.41c-.64-9.53-1.63-19.16-2.94-28.59a3.66,3.66,0,0,1,7.25-1c1.32,9.6,2.33,19.39,3,29.1a3.66,3.66,0,0,1-3.4,3.89ZM97.36,500.69H97.1a3.65,3.65,0,0,1-3.39-3.91c.69-9.7,1.73-19.48,3.09-29.09a3.66,3.66,0,0,1,7.24,1c-1.34,9.43-2.36,19.05-3,28.58A3.65,3.65,0,0,1,97.36,500.69Zm821.3-56a3.65,3.65,0,0,1-3.58-2.9c-2-9.34-4.28-18.73-6.89-27.91a3.65,3.65,0,0,1,7-2c2.66,9.35,5,18.9,7,28.4a3.67,3.67,0,0,1-2.83,4.34A3.81,3.81,0,0,1,918.66,444.72ZM105.49,443.3a4.11,4.11,0,0,1-.77-.08,3.66,3.66,0,0,1-2.81-4.34c2-9.5,4.43-19.05,7.12-28.38a3.66,3.66,0,0,1,7,2c-2.65,9.17-5,18.55-7,27.88A3.66,3.66,0,0,1,105.49,443.3ZM902.78,389a3.66,3.66,0,0,1-3.44-2.41c-3.25-9-6.87-18-10.75-26.69a3.66,3.66,0,1,1,6.68-3c4,8.89,7.64,18,11,27.17a3.66,3.66,0,0,1-3.44,4.9Zm-781.22-1.36a3.73,3.73,0,0,1-1.26-.23,3.64,3.64,0,0,1-2.17-4.69c3.33-9.11,7-18.21,11-27.07a3.66,3.66,0,1,1,6.67,3c-3.9,8.69-7.54,17.64-10.82,26.59A3.65,3.65,0,0,1,121.56,387.61Zm757.66-51.67A3.67,3.67,0,0,1,876,334c-4.48-8.43-9.32-16.82-14.38-24.92a3.66,3.66,0,0,1,6.2-3.88c5.16,8.25,10.08,16.79,14.64,25.37a3.66,3.66,0,0,1-3.23,5.37Zm-734-1.17a3.59,3.59,0,0,1-1.73-.44,3.64,3.64,0,0,1-1.49-4.94c4.57-8.55,9.51-17.06,14.69-25.28a3.66,3.66,0,0,1,6.19,3.89c-5.08,8.08-9.94,16.44-14.44,24.84A3.64,3.64,0,0,1,145.25,334.77Zm703.25-48a3.68,3.68,0,0,1-3-1.5c-5.61-7.73-11.56-15.36-17.69-22.68a3.66,3.66,0,1,1,5.61-4.69c6.24,7.44,12.29,15.2,18,23.07a3.65,3.65,0,0,1-3,5.8Zm-672.41-1a3.66,3.66,0,0,1-3-5.82c5.72-7.83,11.8-15.57,18.06-23a3.65,3.65,0,1,1,5.59,4.71c-6.15,7.3-12.12,14.91-17.75,22.61A3.64,3.64,0,0,1,176.09,285.72Zm635.16-43.44a3.62,3.62,0,0,1-2.63-1.12c-6.62-6.87-13.57-13.59-20.66-20a3.66,3.66,0,0,1,4.9-5.43c7.22,6.51,14.29,13.36,21,20.35a3.65,3.65,0,0,1-2.64,6.19Zm-597.8-.88a3.65,3.65,0,0,1-2.63-6.2c6.76-7,13.86-13.81,21.09-20.3a3.66,3.66,0,0,1,4.88,5.45c-7.1,6.37-14.07,13.08-20.72,19.94A3.63,3.63,0,0,1,213.45,241.4Zm554.78-38a3.69,3.69,0,0,1-2.26-.78c-7.51-5.89-15.32-11.59-23.21-16.94a3.66,3.66,0,1,1,4.1-6.06c8,5.45,16,11.25,23.63,17.25a3.65,3.65,0,0,1-2.26,6.53Zm-511.63-.77a3.66,3.66,0,0,1-2.25-6.54c7.67-6,15.64-11.76,23.69-17.18a3.66,3.66,0,1,1,4.09,6.06c-7.91,5.33-15.75,11-23.29,16.89A3.62,3.62,0,0,1,256.6,202.66Zm463.66-31.74a3.64,3.64,0,0,1-1.83-.49c-8.25-4.79-16.77-9.35-25.34-13.55a3.66,3.66,0,1,1,3.23-6.56c8.71,4.27,17.38,8.91,25.78,13.78a3.66,3.66,0,0,1-1.84,6.82Zm-415.54-.65a3.66,3.66,0,0,1-1.83-6.83c8.42-4.85,17.13-9.47,25.86-13.72a3.66,3.66,0,0,1,3.2,6.58c-8.58,4.17-17.13,8.71-25.41,13.48A3.69,3.69,0,0,1,304.72,170.27Zm363.54-24.85a3.67,3.67,0,0,1-1.37-.27c-8.85-3.59-17.93-6.91-27-9.88a3.66,3.66,0,1,1,2.27-7c9.23,3,18.48,6.4,27.48,10.06a3.65,3.65,0,0,1-1.38,7Zm-311.37-.53a3.66,3.66,0,0,1-1.36-7c9-3.63,18.29-7,27.55-10a3.66,3.66,0,0,1,2.25,7c-9.1,2.93-18.21,6.23-27.07,9.79A3.67,3.67,0,0,1,356.89,144.89Zm256.27-17.46a3.94,3.94,0,0,1-.89-.11c-9.25-2.32-18.71-4.33-28.11-6a3.66,3.66,0,0,1,1.27-7.2c9.57,1.7,19.2,3.75,28.62,6.11a3.66,3.66,0,0,1-.89,7.2Zm-201.06-.35a3.66,3.66,0,0,1-.87-7.21c9.42-2.32,19-4.34,28.63-6a3.66,3.66,0,0,1,1.25,7.21c-9.41,1.63-18.88,3.61-28.13,5.89A3.85,3.85,0,0,1,412.1,127.08Zm144-9.75-.38,0c-9.48-1-19.13-1.68-28.68-2a3.65,3.65,0,0,1,.26-7.3c9.73.35,19.54,1,29.18,2.06a3.66,3.66,0,0,1-.38,7.29Zm-86.87-.15a3.65,3.65,0,0,1-.37-7.29c9.65-1,19.47-1.65,29.19-2a3.65,3.65,0,1,1,.24,7.3c-9.56.32-19.21,1-28.69,1.93Z"/></g><g id="text"><rect class="cls-1" x="268.34" y="783.48" width="486.16" height="196.38"/><path class="cls-2" d="M315.61,856.15l-3.2,21.32h-7.2l11-66.8h10.12l11.43,66.8H330.3l-3.44-21.32Zm10.33-6.53c-2.33-14.72-4-26.08-4.64-32.4H321c-.25,5.17-2.64,20.19-4.44,32.4Z"/><path class="cls-2" d="M350.59,810.67v51.92c0,5.52,1.93,9.27,6.94,9.27s6.86-3.54,6.86-9.22v-52h7.16v51.72c0,10.33-4.63,16-14.16,16-9.26,0-13.91-5.19-13.91-15.81V810.67Z"/><path class="cls-2" d="M387.4,817.25H376.59v-6.58h28.67v6.58H394.51v60.22H387.4Z"/><path class="cls-2" d="M437.83,827.08v33.66c0,11.74-4.84,17.62-14.79,17.62-10.35,0-14.13-6.59-14.13-17.52V827.09c0-11.35,5.17-17.31,14.61-17.31C433.39,809.78,437.83,816.52,437.83,827.08Zm-21.66-.33v34.67c0,7.51,2.72,10.5,7.21,10.5,4.72,0,7.2-2.9,7.2-10.82V826.76c0-7.09-2.44-10.49-7.26-10.49S416.17,819.48,416.17,826.75Z"/><path class="cls-2" d="M461.64,848.06v6.6H444.82v-6.6Z"/><path class="cls-2" d="M469.12,810.67h12.12c14.43,0,16.25,8.92,16.25,19.53v26.38c0,10.26-1.58,20.89-16.7,20.89H469.12Zm7.11,60.63h4c8.09,0,10-4.57,10-13.32V829.34c0-7.72-1.38-12.45-9.92-12.45h-4.09Z"/><path class="cls-2" d="M528.67,845.12h-15v25.82h17l-1,6.53H506.57v-66.8h22.95v6.58H513.68v21.34h15Z"/><path class="cls-2" d="M542.29,858.66v3.87c0,6.3,2.17,9.66,6.86,9.66s6.67-3.46,6.67-10.78c0-7.82-1.72-10.86-8.76-16.34s-10.77-9-10.77-18.81c0-8.46,2.54-16.58,13-16.53,10,.06,12.57,6.67,12.57,15.16V828h-7.06v-2.91c0-5.55-1.08-9.13-5.66-9.13s-5.76,4-5.76,9.26c0,6.2,1.24,8.56,7.36,13.2,9.28,7,12.21,10.91,12.21,22,0,9.39-2.68,17.94-14,17.94-10.78,0-13.84-7.06-13.84-15.86v-3.84Z"/><path class="cls-2" d="M592.76,845.12h-15v25.82h17l-1,6.53H570.67v-66.8h23v6.58H577.78v21.34h15Z"/><path class="cls-2" d="M600.92,810.67H608v60.4h16.81l-.8,6.4H600.92Z"/><path class="cls-2" d="M651.86,845.12h-15v25.82h17l-1,6.53H629.77v-66.8h23v6.58H636.88v21.34h15Z"/><path class="cls-2" d="M686.56,858.31v2.26c0,8.49-1.53,17.79-13.61,17.79-11.56,0-13.55-8.2-13.55-18v-34c0-10.69,4.6-16.59,13.64-16.59,11.21,0,13.22,8,13.22,16.71v2.61H679V826c0-5.29-.82-9.69-6.11-9.69-5,0-6.27,4-6.27,9.85v34.69c0,6.7,1.46,11.11,6.48,11.11,5.21,0,6.16-4.52,6.16-10.81v-2.8Z"/><path class="cls-2" d="M701.1,817.25H690.28v-6.58H719v6.58H708.2v60.22h-7.1Z"/><path class="cls-2" d="M313.19,895.67v51.92c0,5.52,1.93,9.27,6.94,9.27s6.86-3.54,6.86-9.22v-52h7.16v51.72c0,10.33-4.63,16-14.16,16-9.26,0-13.91-5.19-13.91-15.81V895.67Z"/><path class="cls-2" d="M343.72,962.47v-66.8h8.49c3.6,12.36,12.89,47.38,14,52.84h.15c-.39-9-.5-18.38-.5-29.28V895.67h6.7v66.8h-8.2c-3.55-12.54-13.13-49.3-14.39-54.62h-.1c.45,8,.62,18.72.62,30.77v23.85Z"/><path class="cls-2" d="M408.07,943.31v2.26c0,8.49-1.53,17.79-13.61,17.79-11.56,0-13.55-8.2-13.55-18v-34c0-10.69,4.59-16.59,13.64-16.59,11.21,0,13.22,8,13.22,16.71v2.61h-7.22V911c0-5.29-.83-9.69-6.11-9.69-5,0-6.27,4-6.27,9.85v34.69c0,6.7,1.46,11.11,6.48,11.11,5.21,0,6.16-4.52,6.16-10.81v-2.8Z"/><path class="cls-2" d="M422.7,941.15l-3.19,21.32h-7.2l11-66.8h10.12l11.43,66.8H437.4L434,941.15ZM433,934.62c-2.34-14.72-4-26.08-4.65-32.4h-.29c-.24,5.17-2.63,20.19-4.43,32.4Z"/><path class="cls-2" d="M452.7,902.25H441.89v-6.58h28.67v6.58H459.81v60.22H452.7Z"/><path class="cls-2" d="M497.57,930.12h-15v25.82h17l-1,6.53H475.47v-66.8h22.95v6.58H482.58v21.34h15Z"/><path class="cls-2" d="M532.79,962.47h-5.64c-.19-1.09-.39-4.27-.44-5.78-1.68,4.95-5.47,6.67-9.83,6.67-9.23,0-12.27-6.82-12.27-17.5V912.44c0-11,4.42-17.66,14.28-17.66,11.65,0,13.77,8.22,13.77,16.72v1.7h-7.11v-1.87c0-4.67-.56-10.06-6.71-10.06-4.65,0-7,2.93-7,10.53v34.43c0,6.58,1.72,10.78,6.59,10.78,6.13,0,7.18-5.66,7.18-14.18V932.18h-7.42V926h14.58Z"/><path class="cls-2" d="M569.63,912.08v33.66c0,11.74-4.84,17.62-14.79,17.62-10.35,0-14.13-6.59-14.13-17.52V912.09c0-11.35,5.16-17.31,14.61-17.31C565.19,894.78,569.63,901.52,569.63,912.08ZM548,911.75v34.67c0,7.51,2.73,10.5,7.21,10.5,4.73,0,7.2-2.9,7.2-10.82V911.76c0-7.09-2.43-10.49-7.25-10.49S548,904.48,548,911.75Z"/><path class="cls-2" d="M585.32,931.28v31.19h-7.1v-66.8h11.67c10,0,15,4.33,15,15.37v3.06c0,9.07-3.19,12.79-6.8,14.06,4.24,1.57,6.21,4.77,6.21,13.7,0,5.71-.1,16.39.66,20.61H598c-.85-4.16-.7-15.39-.7-20.07,0-8.66-1.22-11.12-7.84-11.12Zm0-6h4.37c6.34,0,8-3.67,8-10.81v-3c0-6.1-1.67-9.76-8.36-9.76h-4Z"/><path class="cls-2" d="M620.22,895.67v66.8h-7.11v-66.8Z"/><path class="cls-2" d="M626.31,957.74l19.82-55.49H628v-6.58H654v5.42l-19.51,54.85h19.77l-1,6.53h-27Z"/><path class="cls-2" d="M681.86,930.12h-15v25.82h17l-1,6.53H659.77v-66.8h22.94v6.58H666.88v21.34h15Z"/><path class="cls-2" d="M689.51,895.67h12.12c14.43,0,16.26,8.92,16.26,19.53v26.38c0,10.26-1.59,20.89-16.71,20.89H689.51Zm7.11,60.63h4c8.09,0,10-4.57,10-13.32V914.34c0-7.72-1.38-12.45-9.92-12.45h-4.09Z"/></g><g id="plus"><circle class="cls-3" cx="511.92" cy="117.25" r="82.07"/><path class="cls-1" d="M543.3,67.89H479.94a19,19,0,0,0-19,19v63.36a19,19,0,0,0,19,19H543.3a19,19,0,0,0,19-19V86.89A19,19,0,0,0,543.3,67.89Zm1.55,57.7c-3.79,15.81-16.83,26.84-33.3,26.84A34.22,34.22,0,0,1,488.06,143l-5.76,5.76a2.81,2.81,0,0,1-2,.85,2.88,2.88,0,0,1-2.85-2.86v-20a2.88,2.88,0,0,1,2.85-2.86h20a2.85,2.85,0,0,1,2,4.87l-6.12,6.11a22.75,22.75,0,0,0,35-4.73,36.71,36.71,0,0,0,2.37-5.22,1.38,1.38,0,0,1,1.34-1h8.57a1.44,1.44,0,0,1,1.43,1.43A.67.67,0,0,1,544.85,125.59Zm1.17-16a2.88,2.88,0,0,1-2.86,2.86h-20a2.87,2.87,0,0,1-2.86-2.86,2.81,2.81,0,0,1,.85-2l6.16-6.17a22.88,22.88,0,0,0-35,4.78,36.32,36.32,0,0,0-2.37,5.23,1.38,1.38,0,0,1-1.34,1h-8.88a1.44,1.44,0,0,1-1.43-1.43v-.31c3.84-15.85,17-26.83,33.49-26.83a34.66,34.66,0,0,1,23.61,9.46l5.81-5.76a2.85,2.85,0,0,1,2-.84A2.88,2.88,0,0,1,546,89.56Z"/></g><g id="check"><circle class="cls-4" cx="102.07" cy="527.1" r="82.07"/><path class="cls-1" d="M133.45,477.74H70.1a19,19,0,0,0-19,19V560.1a19,19,0,0,0,19,19h63.35a19,19,0,0,0,19-19V496.74A19,19,0,0,0,133.45,477.74Zm10.06,35.85L103.11,554l-7.59,7.59a5.4,5.4,0,0,1-7.59,0L80.34,554l-20.2-20.2a5.4,5.4,0,0,1,0-7.59l7.59-7.59a5.4,5.4,0,0,1,7.59,0l16.4,16.47,36.61-36.67a5.4,5.4,0,0,1,7.59,0l7.59,7.59a5.4,5.4,0,0,1,0,7.59Z"/></g><g id="uncheck"><circle class="cls-5" cx="921.77" cy="527.1" r="82.07"/><rect class="cls-1" x="871.09" y="476.41" width="101.37" height="101.37" rx="19.01"/></g><g id="brain"><path class="cls-4" d="M297.29,553c-.43,22.27,9.76,42.83,27.25,55,4.37,3,17.43,11.23,31.43,11.23a33.12,33.12,0,0,0,5.93-.54c-1.63,11.9,1.48,25,8.77,36.95,12.13,19.85,28.84,33.86,45.85,38.46a91.52,91.52,0,0,0,23.73,3.24c13.87,0,26.57-3.49,36.17-10.25,8.5-6,15.92-21,15.39-31,0,0,0,0,0,0V624.31a3.72,3.72,0,0,0,0-1.66V472.76h0v-131c0-.07,0-.14,0-.22,0-12-7.31-23.9-18.93-30.6-12.56-7.25-26.73-7.17-36.4-5.82-16,2.21-29.82,9.13-39.06,19.48-9.61,10.77-13.73,25.35-11.11,38.28-19.2-3.11-39.56,3.09-54.74,17.07-16.33,15-23.41,36.34-18.92,57,2.52,11.61,9.28,21.33,18.42,26.76a41.35,41.35,0,0,0-6.43,16.73,43.57,43.57,0,0,0,1.21,19.33C308.37,511.24,297.7,531.09,297.29,553Z"/><path class="cls-5" d="M698,532.18a43.28,43.28,0,0,0,1.21-19.33,41.2,41.2,0,0,0-6.43-16.73c9.14-5.43,15.91-15.15,18.43-26.76,4.48-20.65-2.59-41.95-18.92-57-15.19-14-35.55-20.17-54.74-17.07,2.61-12.92-1.51-27.5-11.12-38.27-9.23-10.35-23.1-17.27-39-19.48-9.68-1.35-23.84-1.43-36.4,5.82-11.62,6.7-18.91,18.59-18.93,30.6,0,.08,0,.15,0,.22v131h0V655.13a3.58,3.58,0,0,0,0,1.66v31.78c-.52,10,6.89,25,15.4,31,9.6,6.76,22.3,10.25,36.16,10.25a91.4,91.4,0,0,0,23.73-3.24c17-4.6,33.72-18.62,45.85-38.46,7.29-11.92,10.41-25,8.77-37a33.2,33.2,0,0,0,5.93.54c14,0,27.07-8.19,31.43-11.23,17.49-12.18,27.68-32.75,27.26-55C726.14,563.57,715.47,543.72,698,532.18Z"/><path class="cls-2" d="M507.48,641.81a4.18,4.18,0,0,0,0-1.76V490.2h0v-131a1.92,1.92,0,0,0,0-.22c0-12.14-7.37-24.15-19.1-30.92-12.65-7.3-26.91-7.22-36.64-5.86-16,2.22-30,9.18-39.27,19.6-9.56,10.71-13.74,25.17-11.31,38.08-19.15-2.93-39.39,3.31-54.52,17.24-16.43,15.12-23.54,36.55-19,57.33,2.51,11.57,9.21,21.29,18.27,26.81a41.8,41.8,0,0,0-6.28,16.55A43.94,43.94,0,0,0,340.7,517c-17.43,11.62-28.06,31.5-28.48,53.44-.42,22.38,9.82,43.06,27.41,55.31,4.4,3.06,17.53,11.29,31.64,11.29a33.44,33.44,0,0,0,5.53-.45c-1.5,11.86,1.62,24.86,8.86,36.69,12.18,19.92,29,34,46.06,38.62a91.78,91.78,0,0,0,23.82,3.25c13.95,0,26.72-3.51,36.38-10.32,8.59-6.05,16.07-21.16,15.55-31.3,0,0,0,0,0,0Zm-20.19,56.46c-13.06,9.2-33.05,11.39-53.47,5.88-15.13-4.09-30.19-16.87-41.3-35-6.37-10.43-9.11-21.76-7.71-31.92,1.54-11.23,8.53-21,17.8-25l.11-.06a35,35,0,0,0,7.59,4.45,36.19,36.19,0,0,0,14.18,2.83,37.25,37.25,0,0,0,20.79-6.24,4,4,0,0,0-4.52-6.65,28.63,28.63,0,0,1-35.42-44.81,4,4,0,1,0-5.43-5.93A37.49,37.49,0,0,0,388.52,589a36.92,36.92,0,0,0,8.06,17.21c-8.06,4.44-14.45,12.32-17.72,21.63-11.1,3.65-25.09-2-34.63-8.65-15.38-10.71-24.34-28.87-24-48.56.36-18.76,9.16-35.78,23.66-46.05a32.61,32.61,0,0,0,18.18,15.27,28.62,28.62,0,0,0,8.66,1.35,26.58,26.58,0,0,0,17-5.94A4,4,0,1,0,382.6,529c-4.7,3.9-11.79,5.12-18.05,3.12a25.15,25.15,0,0,1-14.4-12.95A34.22,34.22,0,0,1,347.51,499c1.29-8.12,5.15-15.21,10.59-19.48,5.92-4.63,13.94-5.83,20-3a4,4,0,1,0,3.42-7.28c-8.71-4.1-20.11-2.51-28.36,3.94-.68.54-1.32,1.13-2,1.72-7.76-4.22-13.59-12.34-15.74-22.24-4-18.22,2.1-36.34,16.62-49.71,13.9-12.8,32.65-18.22,50.05-14.8a25.67,25.67,0,0,0-.09,25.38,4,4,0,0,0,3.47,2,4,4,0,0,0,2-.56,4,4,0,0,0,1.43-5.5,17,17,0,0,1,23.84-22.9,4,4,0,1,0,4.36-6.76,25.69,25.69,0,0,0-27.7.43c-2.83-10.94.58-23.74,9-33.16,8-9,20.23-15,34.38-17,8.48-1.18,20.84-1.29,31.51,4.87,9.47,5.46,15.53,15.52,15.08,25a3.4,3.4,0,0,0,0,.45V415c-8.85,1.83-17.65,1.17-25-2-8.49-3.64-15.14-10.92-17.35-19-2.32-8.51.45-18.08,6.75-23.28a4,4,0,1,0-5.12-6.2c-8.79,7.26-12.57,20-9.39,31.6,2.88,10.55,11.09,19.62,21.95,24.27a47.2,47.2,0,0,0,18.56,3.65,55,55,0,0,0,9.58-.87v66.16c-4.17,9.4-15.89,16.53-26,15.68s-19.22-8.66-21.85-18.36a36.79,36.79,0,0,0,9-14.56,37.88,37.88,0,0,0-9.82-38.61,4,4,0,0,0-5.52,5.85,29.18,29.18,0,1,1-44.64,36.89,4,4,0,0,0-6.78,4.32,38,38,0,0,0,31.62,17.2,34.83,34.83,0,0,0,4.44-.28,36.69,36.69,0,0,0,15-5.44,33.64,33.64,0,0,0,27.86,21c.76.06,1.53.09,2.3.09,8.71,0,17.78-4,24.37-10.3V631c-9.82-7.35-23.56-9.7-35-5.13-14.74,5.91-24.35,22.82-21.88,38.5a4,4,0,0,0,4,3.39,3.35,3.35,0,0,0,.63,0,4,4,0,0,0,3.35-4.6c-1.91-12.13,5.52-25.21,16.92-29.77,11-4.4,24.73-.53,32,8.78V673.5s0,.09,0,.14,0,.09,0,.13C499.89,680.48,494.26,693.36,487.29,698.27Z"/><path class="cls-2" d="M458.76,580.07a30.55,30.55,0,0,0,24.48-49.15,4,4,0,1,0-6.38,4.9,22.52,22.52,0,1,1-39.25,20.75,4,4,0,1,0-7.64,2.52,31.37,31.37,0,0,0,26.18,20.85A25.34,25.34,0,0,0,458.76,580.07Z"/><path class="cls-2" d="M683.64,517a43.94,43.94,0,0,0,1.13-19.24,41.65,41.65,0,0,0-6.28-16.55c9.06-5.52,15.76-15.24,18.27-26.81,4.51-20.78-2.6-42.21-19-57.33-15.12-13.93-35.37-20.17-54.52-17.24,2.43-12.91-1.75-27.37-11.31-38.08-9.29-10.42-23.24-17.38-39.27-19.6-9.73-1.36-24-1.44-36.63,5.86-11.73,6.77-19.1,18.78-19.11,30.92a1.8,1.8,0,0,0,0,.22v131h0V640.05a3.87,3.87,0,0,0,0,1.76v31.73c-.52,10.14,7,25.26,15.55,31.3,9.66,6.81,22.44,10.32,36.38,10.32a91.78,91.78,0,0,0,23.82-3.25c17.1-4.62,33.89-18.7,46.06-38.62,7.24-11.83,10.36-24.83,8.87-36.69a33.24,33.24,0,0,0,5.52.45c14.11,0,27.25-8.23,31.64-11.29,17.59-12.25,27.84-32.93,27.41-55.31C711.7,548.51,701.07,528.63,683.64,517Zm-3.52,102.15c-9.55,6.65-23.54,12.29-34.64,8.65-3.27-9.31-9.66-17.19-17.72-21.63a37,37,0,0,0,8.07-17.2,37.53,37.53,0,0,0-11.4-33.24,4,4,0,0,0-5.43,5.93,28.63,28.63,0,0,1-35.42,44.81,4,4,0,0,0-4.51,6.65,37.22,37.22,0,0,0,20.79,6.24A36.26,36.26,0,0,0,614,616.54a35.28,35.28,0,0,0,7.59-4.45l.1.06c9.27,4,16.26,13.8,17.8,25,1.4,10.16-1.33,21.49-7.71,31.92-11.11,18.18-26.17,31-41.3,35-20.42,5.51-40.41,3.32-53.47-5.88-7-4.91-12.6-17.79-12.15-24.5,0,0,0-.09,0-.13a.68.68,0,0,0,0-.14V642.16c7.25-9.31,21-13.18,32-8.78,11.39,4.56,18.83,17.64,16.92,29.77a4,4,0,0,0,3.34,4.6,3.35,3.35,0,0,0,.63,0,4,4,0,0,0,4-3.39c2.47-15.68-7.14-32.59-21.87-38.5-11.42-4.57-25.15-2.22-35,5.13V502.87c6.58,6.26,15.66,10.3,24.36,10.3.77,0,1.54,0,2.3-.09a33.67,33.67,0,0,0,27.87-21,36.64,36.64,0,0,0,15,5.44,34.67,34.67,0,0,0,4.43.28,38,38,0,0,0,31.63-17.2,4,4,0,0,0-6.78-4.32A29.18,29.18,0,1,1,579,439.39a4,4,0,0,0-5.52-5.85,37.88,37.88,0,0,0-9.82,38.61,36.9,36.9,0,0,0,9,14.56c-2.63,9.7-11.82,17.51-21.85,18.36s-21.81-6.28-26-15.68V423.23a54.85,54.85,0,0,0,9.57.87A47.2,47.2,0,0,0,553,420.45c10.87-4.65,19.07-13.72,22-24.27,3.18-11.64-.59-24.34-9.38-31.6a4,4,0,1,0-5.12,6.2c6.29,5.2,9.07,14.77,6.74,23.28-2.21,8.08-8.85,15.36-17.35,19-7.33,3.14-16.12,3.8-25,2V360.46a3.39,3.39,0,0,0,0-.45c-.45-9.5,5.61-19.56,15.08-25,10.68-6.16,23-6.05,31.51-4.87,14.15,2,26.36,8,34.38,17,8.41,9.42,11.82,22.22,9,33.16a25.69,25.69,0,0,0-27.7-.43,4,4,0,1,0,4.36,6.76,17,17,0,0,1,23.84,22.9,4,4,0,0,0,1.43,5.5,4,4,0,0,0,2,.56,4,4,0,0,0,3.47-2,25.67,25.67,0,0,0-.08-25.38c17.39-3.42,36.14,2,50,14.8,14.51,13.37,20.57,31.49,16.62,49.71-2.15,9.9-8,18-15.74,22.24-.64-.59-1.29-1.18-2-1.72-8.25-6.45-19.64-8-28.36-3.94a4,4,0,1,0,3.42,7.28c6-2.84,14.07-1.64,20,3,5.44,4.27,9.3,11.36,10.59,19.48a34.14,34.14,0,0,1-2.64,20.18,25.16,25.16,0,0,1-14.39,12.95c-6.27,2-13.35.78-18.06-3.12a4,4,0,0,0-5.13,6.19,26.59,26.59,0,0,0,17,5.94,28.71,28.71,0,0,0,8.66-1.35,32.62,32.62,0,0,0,18.17-15.27c14.5,10.27,23.3,27.29,23.66,46.05C704.46,590.29,695.5,608.45,680.12,619.16Z"/><path class="cls-2" d="M591.81,554a4,4,0,0,0-5.08,2.56,22.52,22.52,0,1,1-39.25-20.75,4,4,0,0,0-6.38-4.9,30.55,30.55,0,0,0,24.48,49.15,25.34,25.34,0,0,0,2.61-.13,31.36,31.36,0,0,0,26.18-20.85A4,4,0,0,0,591.81,554Z"/></g><path class="cls-6" d="M921.77,496.09a6.71,6.71,0,0,1-6.71-6.71V462.57a6.71,6.71,0,0,1,13.42,0v26.81A6.7,6.7,0,0,1,921.77,496.09Z"/><path class="cls-6" d="M921.77,598a6.71,6.71,0,0,1-6.71-6.7V564.45a6.71,6.71,0,0,1,13.42,0v26.81A6.7,6.7,0,0,1,921.77,598Z"/><path class="cls-6" d="M986.11,533.62H959.3a6.71,6.71,0,0,1,0-13.41h26.81a6.71,6.71,0,1,1,0,13.41Z"/><path class="cls-6" d="M884.24,533.62H857.43a6.71,6.71,0,1,1,0-13.41h26.81a6.71,6.71,0,1,1,0,13.41Z"/><path class="cls-6" d="M949.38,506a6.71,6.71,0,0,1-4.74-11.45l19-19a6.71,6.71,0,0,1,9.49,9.48l-19,19A6.69,6.69,0,0,1,949.38,506Z"/><path class="cls-6" d="M875.12,580.27a6.71,6.71,0,0,1-4.74-11.45l19-19a6.7,6.7,0,0,1,9.48,9.48l-19,19A6.69,6.69,0,0,1,875.12,580.27Z"/><path class="cls-6" d="M968.42,580.27a6.69,6.69,0,0,1-4.75-2l-19-19a6.71,6.71,0,0,1,9.49-9.48l19,19a6.71,6.71,0,0,1-4.74,11.45Z"/><path class="cls-6" d="M894.16,506a6.67,6.67,0,0,1-4.74-2l-19-19a6.71,6.71,0,0,1,9.49-9.48l19,19A6.71,6.71,0,0,1,894.16,506Z"/></g></svg>